# xmcd
#
# Track frame offsets:
#	150
#	15756
#	30653
#	43950
#	59950
#	75453
#	89439
#	103805
#	119911
#	133186
#	146226
#	159689
#	173634
#	187955
#	203561
#	216922
#	231287
#	244912
#	259633
#	273323
#
# Disc length: 3844 seconds
#
# Revision: 0
# Processed by: cddbd v1.5.2PL0 Copyright (c) Steve Scherf et al.
# Submitted via: dBpowerAMP V4.0
#
DISCID=2a0f0214
DTITLE=Bessie Smith - Presenting Bessie Smith
DYEAR=1900
DGENRE=
TTITLE0=Tain't Nobody's Business If I Do
TTITLE1=Aggravatin' Papa
TTITLE2=Baby, Won't You Please Come Home
TTITLE3=Beale Street Mamma
TTITLE4=Down Hearted Blues
TTITLE5=Gulf Coast Blues
TTITLE6=I Ain't Got Nobody
TTITLE7=If You Don't Know, I Know Who Will
TTITLE8=Mamma's Got The Blues
TTITLE9=Nobody's Blues But Mine
TTITLE10=Sobbin' Hearted Blues
TTITLE11=St Louis Blues
TTITLE12=Cake Walkin' Babies
TTITLE13=Careless Love Blues
TTITLE14=I've Been Mistreated And I Don't Like It
TTITLE15=Young Woman's Blues
TTITLE16=Alexander's Ragtime Band
TTITLE17=Mean Old Bed Bug Blues
TTITLE18=Empty Bed Blues (Part 1)
TTITLE19=Empty Bed Blues (Part 2)
EXTD=
EXTT0=
EXTT1=
EXTT2=
EXTT3=
EXTT4=
EXTT5=
EXTT6=
EXTT7=
EXTT8=
EXTT9=
EXTT10=
EXTT11=
EXTT12=
EXTT13=
EXTT14=
EXTT15=
EXTT16=
EXTT17=
EXTT18=
EXTT19=
PLAYORDER=
